<?xml version="1.0" encoding="utf-8"?>
<!-- Generator: Adobe Illustrator 27.3.1, SVG Export Plug-In . SVG Version: 6.00 Build 0)  -->
<svg version="1.1" xmlns="http://www.w3.org/2000/svg" xmlns:xlink="http://www.w3.org/1999/xlink" x="0px" y="0px"
	 viewBox="0 0 229.4 266.6" style="enable-background:new 0 0 229.4 266.6;" xml:space="preserve">
<style type="text/css">
	.st0{display:none;}
	.st1{display:inline;fill:#50613E;}
	.st2{fill:#3D4E29;}
	.st3{fill:#132A11;}
	.st4{fill:#24391A;}
	.st5{fill:#50613E;}
	.st6{fill:#E5C88F;}
	.st7{fill:#FFDFB0;}
	.st8{fill:#C5A56E;}
	.st9{fill:#FFFFFF;}
</style>
<g id="BACKGROUND" class="st0">
	<rect x="-57.4" y="11.3" class="st1" width="500" height="500"/>
</g>
<g id="OBJECTS">
	<g>
		<path class="st2" d="M216.5,66l-89.7-51.8c-3.6-2.1-7.5-3.1-11.5-3.1c-4,0-8,1-11.5,3.1L14.1,66C7,70.2,2.6,77.8,2.6,86v103.5
			c0,8.2,4.4,15.8,11.5,19.9l89.7,51.8c3.6,2.1,7.5,3.1,11.5,3.1c4,0,8-1,11.5-3.1l89.7-51.8c7.1-4.1,11.5-11.7,11.5-19.9V86
			C228,77.8,223.6,70.2,216.5,66z"/>
		<g>
			<path class="st3" d="M225.5,77.7v103.5c0,7.3-3.9,14.1-10.3,17.8l-89.7,51.8c-3.2,1.8-6.7,2.8-10.3,2.8s-7.1-0.9-10.3-2.8
				l-89.7-51.8C9,195.4,5.1,188.6,5.1,181.3V77.7C5.1,70.4,9,63.6,15.4,60l89.7-51.8c3.2-1.8,6.7-2.8,10.3-2.8s7.1,0.9,10.3,2.8
				L215.3,60C221.6,63.6,225.5,70.4,225.5,77.7z"/>
			<path class="st4" d="M225.5,85.7v95.5c0,7.3-3.9,14.1-10.3,17.8l-89.7,51.8c-3.2,1.8-6.7,2.8-10.3,2.8s-7.1-0.9-10.3-2.8
				l-89.7-51.8C9,195.4,5.1,188.6,5.1,181.3V85.7C5.1,78.4,9,71.6,15.4,68l89.7-51.8c3.2-1.8,6.7-2.8,10.3-2.8s7.1,0.9,10.3,2.8
				L215.3,68C221.6,71.6,225.5,78.4,225.5,85.7z"/>
			<path class="st3" d="M213,77.7v13.3L193.2,81l-12.8,0.7l-38.5-23.4l-10.7,5.8l-15.8-10.4L53.8,90.4l-11.7-7.9L17.7,97.3V77.7
				c0-2.8,1.5-5.5,4-6.9L111.3,19c1.2-0.7,2.6-1.1,4-1.1s2.8,0.4,4,1.1L209,70.8C211.5,72.2,213,74.9,213,77.7z"/>
			<path class="st4" d="M213,85.7v5.3L193.2,81l-12.8,0.7l-38.5-23.4l-10.7,5.8l-15.8-10.4L53.8,90.4l-11.7-7.9L17.7,97.3V85.7
				c0-2.8,1.5-5.5,4-6.9L111.3,27c1.2-0.7,2.6-1.1,4-1.1s2.8,0.4,4,1.1L209,78.8C211.5,80.2,213,82.9,213,85.7z"/>
			<path class="st3" d="M213,181.3v8c0,2.9-1.5,5.5-4,6.9l-3.8,2.2L119.3,248c-1.2,0.7-2.6,1.1-4,1.1s-2.8-0.4-4-1.1l-85.8-49.6
				l-3.9-2.2c-2.5-1.4-4-4.1-4-6.9v-8c0,2.9,1.5,5.5,4,6.9l3.9,2.2l85.8,49.6c1.2,0.7,2.6,1.1,4,1.1s2.8-0.4,4-1.1l85.8-49.6
				l3.8-2.2C211.5,186.8,213,184.1,213,181.3z"/>
			<path class="st5" d="M213,91.1v90.2c0,2.9-1.5,5.5-4,6.9l-3.8,2.2L119.3,240c-1.2,0.7-2.6,1.1-4,1.1s-2.8-0.4-4-1.1l-85.8-49.6
				l-3.9-2.2c-2.5-1.4-4-4.1-4-6.9V97.3l24.4-14.9l11.7,7.9l61.5-36.7l15.8,10.4l10.7-5.8l38.5,23.4l12.8-0.7L213,91.1z"/>
			<path class="st3" d="M205.1,190.4l-12.1,7L119.3,240c-1.2,0.7-2.6,1.1-4,1.1s-2.8-0.4-4-1.1l-73.7-42.6l-12.1-7H205.1z"/>
			<path class="st4" d="M193,197.4L119.3,240c-1.2,0.7-2.6,1.1-4,1.1s-2.8-0.4-4-1.1l-73.7-42.6H193z"/>
			<polygon class="st6" points="162.7,127.8 162.7,182.5 67.9,182.5 67.9,127.8 115.3,100.4 			"/>
			<polygon class="st7" points="162.7,137.8 162.7,182.5 67.9,182.5 67.9,137.8 115.3,110.4 			"/>
			<rect x="58.1" y="182.5" class="st4" width="114.5" height="7.9"/>
			<path class="st3" d="M213,153.7v18.7h-50.3v-28C179.3,146.5,196,149.6,213,153.7z"/>
			<path class="st3" d="M67.9,144.2v28.2H17.7v-18.7C34.2,149.5,51,146.3,67.9,144.2z"/>
			<rect x="162.7" y="172.4" class="st2" width="50.3" height="7"/>
			<path class="st4" d="M213,160.7v11.7h-50.3v-21C179.3,153.5,196,156.6,213,160.7z"/>
			<rect x="17.7" y="172.4" class="st2" width="50.3" height="7"/>
			<path class="st4" d="M67.9,151.2v21.2H17.7v-11.7C34.2,156.5,51,153.3,67.9,151.2z"/>
			<rect x="100.9" y="139.6" class="st3" width="28.8" height="42.9"/>
			<rect x="100.9" y="149.1" class="st4" width="28.8" height="33.5"/>
			<g>
				<rect x="141.8" y="151.9" class="st8" width="9.1" height="9.1"/>
				<rect x="79.7" y="151.9" class="st8" width="9.1" height="9.1"/>
			</g>
			<polygon class="st3" points="131.9,221.6 130.4,216.8 116.5,221.2 102.6,216.8 101.1,221.6 108.3,223.9 101.1,226.1 102.6,230.9 
				116.5,226.5 130.4,230.9 131.9,226.1 124.7,223.9 			"/>
			<path class="st9" d="M116.5,198.4c5,4.5,6.5,13.3,0,13.3C110,211.7,111.4,202.9,116.5,198.4z"/>
			<g>
				<polygon class="st3" points="157.5,208.5 155.4,208.5 156.3,215.1 151.2,215.1 150.4,208.5 145,208.5 144.2,215.1 139.2,215.1 
					140,208.5 137.9,208.5 137.9,203.5 157.5,203.5 				"/>
				<polygon class="st3" points="92.7,208.5 90.6,208.5 91.5,215.1 86.4,215.1 85.6,208.5 80.2,208.5 79.4,215.1 74.4,215.1 
					75.2,208.5 73.1,208.5 73.1,203.5 92.7,203.5 				"/>
			</g>
			<polygon class="st4" points="131.1,64.1 107.1,77.4 115.3,53.6 			"/>
			<polygon class="st4" points="141.8,58.3 156.1,84.2 180.3,81.7 			"/>
			<polygon class="st4" points="42.1,82.4 34.8,102 53.8,90.4 			"/>
		</g>
		<g>
			<path class="st8" d="M216.5,57.8L126.8,6C123.3,4,119.3,3,115.3,3c-4,0-8,1-11.5,3.1L14.1,57.8C7,61.9,2.6,69.5,2.6,77.8v103.5
				c0,8.2,4.4,15.8,11.5,19.9l89.7,51.8c3.6,2.1,7.5,3.1,11.5,3.1c4,0,8-1,11.5-3.1l89.7-51.8c7.1-4.1,11.5-11.7,11.5-19.9V77.8
				C228,69.5,223.6,61.9,216.5,57.8z M223,181.3c0,6.4-3.4,12.4-9,15.6l-89.7,51.8c-2.8,1.6-5.9,2.4-9,2.4c-3.1,0-6.2-0.8-9-2.4
				l-89.7-51.8c-5.6-3.2-9-9.2-9-15.6V77.8c0-6.4,3.4-12.4,9-15.6l89.7-51.8c2.8-1.6,5.9-2.4,9-2.4c3.1,0,6.2,0.8,9,2.4L214,62.1
				c5.6,3.2,9,9.2,9,15.6V181.3z"/>
			<path class="st8" d="M210.2,68.7l-89.7-51.8c-1.6-0.9-3.4-1.4-5.3-1.4c-1.8,0-3.7,0.5-5.3,1.4L20.4,68.7
				c-3.2,1.9-5.2,5.3-5.3,9.1v103.5c0,3.8,2,7.2,5.3,9.1l89.7,51.8c1.6,0.9,3.4,1.4,5.3,1.4c1.8,0,3.7-0.5,5.3-1.4l89.7-51.8
				c3.2-1.9,5.2-5.3,5.3-9.1V77.8C215.5,74,213.5,70.5,210.2,68.7z M210.5,181.3c0,2-1.1,3.8-2.8,4.8l-89.7,51.8
				c-0.8,0.5-1.8,0.7-2.8,0.7c-1,0-1.9-0.3-2.8-0.7l-89.7-51.8c-1.7-1-2.8-2.8-2.8-4.8V77.8c0-2,1.1-3.8,2.8-4.8l89.7-51.8
				c0.8-0.5,1.8-0.7,2.8-0.7c1,0,1.9,0.3,2.8,0.7L207.7,73c1.7,1,2.8,2.8,2.8,4.8V181.3z"/>
			<path class="st8" d="M165.2,180v-53.7l-49.9-28.8l-49.9,28.8V180h-9.8v12.9h119.5v-2.5V180H165.2z M70.4,129.2l44.9-25.9
				l44.9,25.9l0,50.8h-28v-42.9h-2.5H98.4V180h-28V129.2z M127.2,180h-23.8v-37.9h23.8V180z M60.6,185h37.8h33.8h37.8l0,2.9H60.6
				V185z"/>
			<g>
				<rect x="141.8" y="151.9" class="st8" width="9.1" height="9.1"/>
				<rect x="79.7" y="151.9" class="st8" width="9.1" height="9.1"/>
			</g>
			<path class="st8" d="M48.8,113.6c2.6,1.2,5.7,2.1,9.3,2.1v-5c-4.2,0-7.5-1.5-9.8-3.2c-1.1-0.9-2-1.9-2.5-2.7
				c-0.3-0.4-0.4-0.8-0.6-1.1c-0.1-0.3-0.1-0.5-0.1-0.6v-6.7h-5v6.7c0,0.1,0,0.3-0.1,0.6c-0.2,0.5-0.6,1.3-1.3,2.1
				c-1,1.2-2.5,2.4-4.5,3.4c-2,0.9-4.3,1.6-7.1,1.6v5c5.4,0,9.8-1.9,12.9-4.3c0,0,0.1-0.1,0.1-0.1v5.1c0,0.1,0,0.3-0.1,0.6
				c-0.2,0.5-0.6,1.3-1.3,2.1c-1,1.2-2.5,2.4-4.5,3.4c-2,0.9-4.3,1.6-7.1,1.6v5c5.4,0,9.8-1.9,12.9-4.3c0,0,0.1-0.1,0.1-0.1v5.1
				c0,0.1,0,0.3-0.1,0.6c-0.2,0.5-0.6,1.3-1.3,2.1c-1,1.2-2.5,2.4-4.5,3.4c-2,0.9-4.3,1.6-7.1,1.6v5c5.4,0,9.8-1.9,12.9-4.3
				c0,0,0.1-0.1,0.1-0.1v23.2h5v-23.2c1.1,0.9,2.3,1.7,3.8,2.4c2.6,1.2,5.7,2.1,9.3,2.1v-5c-4.2,0-7.5-1.5-9.8-3.2
				c-1.1-0.9-2-1.9-2.5-2.7c-0.3-0.4-0.4-0.8-0.6-1.1c-0.1-0.3-0.1-0.5-0.1-0.6v-5.1c1.1,0.9,2.3,1.7,3.8,2.4
				c2.6,1.2,5.7,2.1,9.3,2.1v-5c-4.2,0-7.5-1.5-9.8-3.2c-1.1-0.9-2-1.9-2.5-2.7c-0.3-0.4-0.4-0.8-0.6-1.1c-0.1-0.3-0.1-0.5-0.1-0.6
				v-5.1C46.2,112.1,47.4,112.9,48.8,113.6z"/>
			<path class="st8" d="M89.9,104.6c2.4,1.2,5.3,1.9,8.6,1.9v-5c-3.8,0-6.9-1.3-9-3c-1-0.8-1.8-1.7-2.3-2.4c-0.2-0.4-0.4-0.7-0.5-1
				c-0.1-0.3-0.1-0.4-0.1-0.5v-6.2h-5v6.2c0,0,0,0.2-0.1,0.5c-0.2,0.5-0.5,1.1-1.2,1.9c-0.9,1.1-2.3,2.2-4.1,3.1
				c-1.8,0.9-4,1.4-6.5,1.4v5c4.9,0,9-1.7,11.8-3.9v4.4c0,0,0,0.2-0.1,0.5c-0.2,0.5-0.5,1.1-1.2,1.9c-0.9,1.1-2.3,2.2-4.1,3.1
				c-1.8,0.9-4,1.4-6.5,1.4v5c4.9,0,9-1.7,11.8-3.9v3.4h5v-3.4c0.9,0.7,1.9,1.3,3,1.9l2.2-4.5c-1.8-0.9-3.2-2-4-3.1
				c-0.4-0.5-0.8-1.1-0.9-1.5c-0.2-0.4-0.2-0.7-0.2-0.7v-4.4C87.7,103.3,88.8,104,89.9,104.6z"/>
			<path class="st8" d="M194.3,113.6c2.6,1.2,5.7,2.1,9.3,2.1v-5c-4.2,0-7.5-1.5-9.8-3.2c-1.1-0.9-2-1.9-2.5-2.7
				c-0.3-0.4-0.4-0.8-0.6-1.1c-0.1-0.3-0.1-0.5-0.1-0.6v-6.7h-5v6.7c0,0.1,0,0.3-0.1,0.6c-0.2,0.5-0.6,1.3-1.3,2.1
				c-1,1.2-2.5,2.4-4.5,3.4c-2,0.9-4.3,1.6-7.1,1.6v5c5.4,0,9.8-1.9,12.9-4.3c0,0,0.1-0.1,0.1-0.1v5.1c0,0.1,0,0.3-0.1,0.6
				c-0.2,0.5-0.6,1.3-1.3,2.1c-1,1.2-2.5,2.4-4.5,3.4c-2,0.9-4.3,1.6-7.1,1.6v5c5.4,0,9.8-1.9,12.9-4.3c0,0,0.1-0.1,0.1-0.1v5.1
				c0,0.1,0,0.3-0.1,0.6c-0.2,0.5-0.6,1.3-1.3,2.1c-1,1.2-2.5,2.4-4.5,3.4c-2,0.9-4.3,1.6-7.1,1.6v5c5.4,0,9.8-1.9,12.9-4.3
				c0,0,0.1-0.1,0.1-0.1v23.2h5v-23.2c1.1,0.9,2.3,1.7,3.8,2.4c2.6,1.2,5.7,2.1,9.3,2.1v-5c-4.2,0-7.5-1.5-9.8-3.2
				c-1.1-0.9-2-1.9-2.5-2.7c-0.3-0.4-0.4-0.8-0.6-1.1c-0.1-0.3-0.1-0.5-0.1-0.6v-5.1c1.1,0.9,2.3,1.7,3.8,2.4
				c2.6,1.2,5.7,2.1,9.3,2.1v-5c-4.2,0-7.5-1.5-9.8-3.2c-1.1-0.9-2-1.9-2.5-2.7c-0.3-0.4-0.4-0.8-0.6-1.1c-0.1-0.3-0.1-0.5-0.1-0.6
				v-5.1C191.7,112.1,192.9,112.9,194.3,113.6z"/>
			<path class="st8" d="M152.1,104.6c2.4,1.2,5.3,1.9,8.6,1.9v-5c-3.8,0-6.9-1.3-9-3c-1-0.8-1.8-1.7-2.3-2.4c-0.2-0.4-0.4-0.7-0.5-1
				c-0.1-0.3-0.1-0.4-0.1-0.5v-6.2h-5v6.2c0,0,0,0.2-0.1,0.5c-0.2,0.5-0.5,1.1-1.2,1.9c-0.9,1.1-2.3,2.2-4.1,3.1
				c-1.8,0.9-4,1.4-6.5,1.4v5c4.9,0,9-1.7,11.8-3.9v4.4c0,0,0,0.3-0.2,0.7c-0.3,0.6-0.8,1.5-1.7,2.3c-0.8,0.8-2,1.6-3.3,2.3l2.2,4.5
				c1.1-0.5,2.1-1.2,3-1.9v3.4h5v-3.4c0.9,0.7,2,1.4,3.2,2c2.4,1.2,5.3,1.9,8.6,1.9v-5c-3.8,0-6.9-1.3-9-3c-1-0.8-1.8-1.7-2.3-2.4
				c-0.2-0.4-0.4-0.7-0.5-1c-0.1-0.3-0.1-0.4-0.1-0.5v-4.4C149.9,103.3,150.9,104,152.1,104.6z"/>
			<polygon class="st8" points="131.9,217.6 130.4,212.8 116.5,217.2 102.6,212.8 101.1,217.6 108.3,219.9 101.1,222.1 102.6,226.9 
				116.5,222.5 130.4,226.9 131.9,222.1 124.7,219.9 			"/>
			<path class="st8" d="M121.9,201.5c-0.9-1.8-2.1-3.6-3.8-5l-1.7-1.5l-1.7,1.5c-1.6,1.4-2.9,3.2-3.8,5c-0.9,1.8-1.4,3.8-1.4,5.7
				c0,0.8,0.1,1.7,0.4,2.5c0.4,1.2,1.2,2.4,2.3,3.2c1.2,0.8,2.6,1.2,4.1,1.2c1,0,2-0.2,2.9-0.5c1.3-0.5,2.4-1.5,3.1-2.7
				c0.6-1.2,0.9-2.5,0.9-3.7C123.3,205.3,122.8,203.4,121.9,201.5z M118.2,208.2c-0.1,0.4-0.3,0.5-0.4,0.7c-0.2,0.1-0.5,0.3-1.3,0.3
				c-0.5,0-0.8-0.1-1-0.2c-0.3-0.1-0.4-0.2-0.5-0.5c-0.1-0.2-0.3-0.7-0.3-1.3c0-0.9,0.3-2.2,0.9-3.5c0.3-0.5,0.6-1.1,0.9-1.6
				c0.3,0.5,0.7,1,0.9,1.6c0.6,1.3,0.9,2.6,0.9,3.5C118.3,207.6,118.3,208,118.2,208.2z"/>
			<g>
				<path class="st8" d="M213.6,151.3c-17.1-4.2-34.1-7.3-50.8-9.4l-0.6,5l0,0c16.5,2,33.3,5.1,50.2,9.2L213.6,151.3z"/>
				<path class="st8" d="M17,151.3l1.2,4.8c16.5-4.2,33.1-7.4,49.9-9.4l-0.6-5C50.5,143.8,33.7,147,17,151.3z"/>
				<polygon class="st8" points="18.3,156.1 18.3,156.1 18.3,156.1 				"/>
				<rect x="162.7" y="169.9" class="st8" width="50.3" height="5"/>
				<rect x="17.7" y="169.9" class="st8" width="50.3" height="5"/>
				<rect x="26.1" y="187.9" class="st8" width="32" height="5"/>
				<rect x="172.6" y="187.9" class="st8" width="32.6" height="5"/>
			</g>
			<g>
				<polygon class="st8" points="157.5,205.5 155.4,205.5 156.3,212.1 151.2,212.1 150.4,205.5 145,205.5 144.2,212.1 139.2,212.1 
					140,205.5 137.9,205.5 137.9,200.5 157.5,200.5 				"/>
				<polygon class="st8" points="92.7,205.5 90.6,205.5 91.5,212.1 86.4,212.1 85.6,205.5 80.2,205.5 79.4,212.1 74.4,212.1 
					75.2,205.5 73.1,205.5 73.1,200.5 92.7,200.5 				"/>
			</g>
			<path class="st8" d="M193.7,78.5L181,79.2l-39-23.7l-10.7,5.7l-15.9-10.5L53.9,87.4l-11.8-7.9L16.4,95.2l2.6,4.3l18.3-11.1
				l-7.3,19.6l25.2-15.4l55.6-33.2l-8.1,23.5l29.7-16.5l8.5-4.6l13.8,25.2l25.8-2.7l12.1-0.7l19.2,9.8l2.3-4.5L193.7,78.5z
				 M43.3,86.3l5.9,4l-9.5,5.8L43.3,86.3z M111.6,72l5-14.5l9.7,6.4L111.6,72z M157.5,81.6l-8.9-16.3L172.7,80L157.5,81.6z"/>
			<path class="st9" d="M91.9,46h-2.2c0,1.7-1.4,3-3,3v2.2c1.7,0,3,1.4,3,3h2.2c0-1.7,1.4-3,3-3V49C93.3,49,91.9,47.7,91.9,46z"/>
			<path class="st9" d="M117.6,28.6h-2.2c0,1.7-1.4,3-3,3v2.2c1.7,0,3,1.4,3,3h2.2c0-1.7,1.4-3,3-3v-2.2
				C118.9,31.6,117.6,30.3,117.6,28.6z"/>
			<path class="st9" d="M162,55.1h-2.2c0,1.7-1.4,3-3,3v2.2c1.7,0,3,1.4,3,3h2.2c0-1.7,1.4-3,3-3v-2.2
				C163.4,58.1,162.1,56.8,162,55.1z"/>
		</g>
	</g>
</g>
</svg>
