<?xml version="1.0" encoding="utf-8"?>
<!-- Generator: Adobe Illustrator 27.3.1, SVG Export Plug-In . SVG Version: 6.00 Build 0)  -->
<svg version="1.1" xmlns="http://www.w3.org/2000/svg" xmlns:xlink="http://www.w3.org/1999/xlink" x="0px" y="0px"
	 viewBox="0 0 231.2 266.1" style="enable-background:new 0 0 231.2 266.1;" xml:space="preserve">
<style type="text/css">
	.st0{display:none;}
	.st1{display:inline;fill:#50613E;}
	.st2{fill:#3D4E29;}
	.st3{fill:#132A11;}
	.st4{fill:#24391A;}
	.st5{fill:#50613E;}
	.st6{fill:#141E75;}
	.st7{fill:#E5C88F;}
	.st8{fill:#FFDFB0;}
	.st9{fill:#C5A56E;}
	.st10{fill:#FFFFFF;}
	.st11{display:none;fill:#C5A56E;}
	.st12{display:inline;}
</style>
<g id="BACKGROUND" class="st0">
	<rect x="-135.2" y="-85.7" class="st1" width="500" height="500"/>
</g>
<g id="OBJECTS">
	<g>
		<path class="st2" d="M215.9,65l-89.7-51.8c-3.6-2.1-7.5-3.1-11.5-3.1c-4,0-8,1-11.5,3.1L13.6,65C6.5,69.1,2.1,76.8,2.1,85v103.5
			c0,8.2,4.4,15.8,11.5,19.9l89.7,51.8c3.6,2.1,7.5,3.1,11.5,3.1c4,0,8-1,11.5-3.1l89.7-51.8c7.1-4.1,11.5-11.7,11.5-19.9V85
			C227.5,76.8,223.1,69.1,215.9,65z"/>
		<g>
			<path class="st3" d="M225,76.7v103.5c0,7.3-3.9,14.1-10.3,17.8L125,249.8c-3.2,1.8-6.7,2.8-10.3,2.8s-7.1-0.9-10.3-2.8
				l-89.7-51.8c-6.4-3.7-10.3-10.4-10.3-17.8V76.7c0-7.3,3.9-14.1,10.3-17.8l89.7-51.8c3.2-1.8,6.7-2.8,10.3-2.8s7.1,0.9,10.3,2.8
				L214.7,59C221.1,62.6,225,69.4,225,76.7z"/>
			<path class="st4" d="M225,84.7v95.5c0,7.3-3.9,14.1-10.3,17.8L125,249.8c-3.2,1.8-6.7,2.8-10.3,2.8s-7.1-0.9-10.3-2.8l-89.7-51.8
				c-6.4-3.7-10.3-10.4-10.3-17.8V84.7c0-7.3,3.9-14.1,10.3-17.8l89.7-51.8c3.2-1.8,6.7-2.8,10.3-2.8s7.1,0.9,10.3,2.8L214.7,67
				C221.1,70.6,225,77.4,225,84.7z"/>
			<path class="st3" d="M212.4,76.7v13.3L192.6,80l-12.8,0.7l-38.5-23.4l-10.7,5.8l-15.8-10.4L53.3,89.3l-11.7-7.9L17.1,96.3V76.7
				c0-2.8,1.5-5.5,4-6.9L110.8,18c1.2-0.7,2.6-1.1,4-1.1s2.8,0.4,4,1.1l89.7,51.8C210.9,71.2,212.4,73.9,212.4,76.7z"/>
			<path class="st4" d="M212.4,84.7v5.3L192.6,80l-12.8,0.7l-38.5-23.4l-10.7,5.8l-15.8-10.4L53.3,89.3l-11.7-7.9L17.1,96.3V84.7
				c0-2.8,1.5-5.5,4-6.9L110.8,26c1.2-0.7,2.6-1.1,4-1.1s2.8,0.4,4,1.1l89.7,51.8C210.9,79.2,212.4,81.9,212.4,84.7z"/>
			<path class="st3" d="M212.4,180.3v8c0,2.9-1.5,5.5-4,6.9l-3.9,2.2L118.8,247c-1.2,0.7-2.6,1.1-4,1.1s-2.8-0.4-4-1.1L25,197.4
				l-3.8-2.2c-2.5-1.4-4-4.1-4-6.9v-8c0,2.9,1.5,5.5,4,6.9l3.8,2.2l85.8,49.6c1.2,0.7,2.6,1.1,4,1.1s2.8-0.4,4-1.1l85.8-49.6
				l3.9-2.2C210.9,185.8,212.4,183.1,212.4,180.3z"/>
			<path class="st5" d="M212.4,90.1v90.2c0,2.9-1.5,5.5-4,6.9l-3.9,2.2L118.8,239c-1.2,0.7-2.6,1.1-4,1.1s-2.8-0.4-4-1.1L25,189.4
				l-3.8-2.2c-2.5-1.4-4-4.1-4-6.9V96.3l24.4-14.9l11.7,7.9l61.5-36.7l15.8,10.4l10.7-5.8l38.5,23.4l12.8-0.7L212.4,90.1z"/>
			<path class="st3" d="M204.6,189.4l-12.1,7L118.8,239c-1.2,0.7-2.6,1.1-4,1.1s-2.8-0.4-4-1.1l-73.7-42.6l-12.1-7H204.6z"/>
			<path class="st6" d="M192.5,196.4L118.8,239c-1.2,0.7-2.6,1.1-4,1.1s-2.8-0.4-4-1.1l-73.7-42.6H192.5z"/>
			<polygon class="st7" points="162.2,126.8 162.2,181.5 67.4,181.5 67.4,126.8 114.8,99.4 			"/>
			<polygon class="st8" points="162.2,136.8 162.2,181.5 67.4,181.5 67.4,136.8 114.8,109.4 			"/>
			<rect x="57.5" y="181.5" class="st4" width="114.5" height="7.9"/>
			<path class="st3" d="M212.4,152.7v18.7h-50.3v-28C178.7,145.5,195.5,148.5,212.4,152.7z"/>
			<path class="st3" d="M67.4,143.2v28.2H17.1v-18.7C33.7,148.5,50.4,145.3,67.4,143.2z"/>
			<rect x="162.2" y="171.4" class="st2" width="50.3" height="7"/>
			<path class="st4" d="M212.4,159.7v11.7h-50.3v-21C178.7,152.5,195.5,155.5,212.4,159.7z"/>
			<rect x="17.1" y="171.4" class="st2" width="50.3" height="7"/>
			<path class="st4" d="M67.4,150.2v21.2H17.1v-11.7C33.7,155.5,50.4,152.3,67.4,150.2z"/>
			<rect x="100.4" y="138.6" class="st3" width="28.8" height="42.9"/>
			<rect x="100.4" y="148.1" class="st4" width="28.8" height="33.5"/>
			<g>
				<rect x="141.3" y="150.9" class="st9" width="9.1" height="9.1"/>
				<rect x="79.1" y="150.9" class="st9" width="9.1" height="9.1"/>
			</g>
			<polygon class="st3" points="131.3,220.6 129.8,215.8 115.9,220.2 102,215.8 100.5,220.6 107.7,222.8 100.5,225.1 102,229.9 
				115.9,225.5 129.8,229.9 131.3,225.1 124.2,222.8 			"/>
			<path class="st10" d="M115.9,197.3c5,4.5,6.5,13.3,0,13.3C109.5,210.6,110.9,201.9,115.9,197.3z"/>
			<g>
				<polygon class="st3" points="157,207.5 154.9,207.5 155.7,214.1 150.7,214.1 149.8,207.5 144.5,207.5 143.7,214.1 138.6,214.1 
					139.4,207.5 137.4,207.5 137.4,202.5 157,202.5 				"/>
				<polygon class="st3" points="92.2,207.5 90.1,207.5 90.9,214.1 85.9,214.1 85,207.5 79.7,207.5 78.9,214.1 73.8,214.1 
					74.6,207.5 72.6,207.5 72.6,202.5 92.2,202.5 				"/>
			</g>
			<polygon class="st4" points="130.6,63.1 106.6,76.4 114.8,52.6 			"/>
			<polygon class="st4" points="141.3,57.3 155.5,83.2 179.8,80.7 			"/>
			<polygon class="st4" points="41.5,81.4 34.3,101 53.3,89.3 			"/>
		</g>
		<g>
			<path class="st9" d="M215.9,56.8L126.3,5c-3.6-2.1-7.5-3.1-11.5-3.1c-4,0-8,1-11.5,3.1L13.6,56.8C6.5,60.9,2.1,68.5,2.1,76.7
				v103.5c0,8.2,4.4,15.8,11.5,19.9l89.7,51.8c3.6,2.1,7.5,3.1,11.5,3.1c4,0,8-1,11.5-3.1l89.7-51.8c7.1-4.1,11.5-11.7,11.5-19.9
				V76.7C227.5,68.5,223.1,60.9,215.9,56.8z M222.5,180.3c0,6.4-3.4,12.4-9,15.6l-89.7,51.8c-2.8,1.6-5.9,2.4-9,2.4
				c-3.1,0-6.2-0.8-9-2.4l-89.7-51.8c-5.6-3.2-9-9.2-9-15.6V76.7c0-6.4,3.4-12.4,9-15.6l89.7-51.8c2.8-1.6,5.9-2.4,9-2.4
				c3.1,0,6.2,0.8,9,2.4l89.7,51.8c5.6,3.2,9,9.2,9,15.6V180.3z"/>
			<path class="st9" d="M209.7,67.6L120,15.9c-1.6-0.9-3.4-1.4-5.3-1.4c-1.8,0-3.7,0.5-5.3,1.4L19.9,67.6c-3.2,1.9-5.2,5.3-5.3,9.1
				v103.5c0,3.8,2,7.2,5.3,9.1l89.7,51.8c1.6,0.9,3.4,1.4,5.3,1.4c1.8,0,3.7-0.5,5.3-1.4l89.7-51.8c3.2-1.9,5.2-5.3,5.3-9.1V76.7
				C214.9,73,212.9,69.5,209.7,67.6z M209.9,180.3c0,2-1.1,3.8-2.8,4.8l-89.7,51.8c-0.8,0.5-1.8,0.7-2.8,0.7c-1,0-1.9-0.3-2.8-0.7
				L22.4,185c-1.7-1-2.8-2.8-2.8-4.8V76.7c0-2,1.1-3.8,2.8-4.8L112,20.2c0.8-0.5,1.8-0.7,2.8-0.7c1,0,1.9,0.3,2.8,0.7L207.2,72
				c1.7,1,2.8,2.8,2.8,4.8V180.3z"/>
			<path class="st9" d="M164.7,179v-53.7l-49.9-28.8l-49.9,28.8V179H55v12.9h119.5v-2.5V179H164.7z M69.9,128.2l44.9-25.9l44.9,25.9
				l0,50.8h-28v-42.9h-2.5H97.9V179h-28V128.2z M126.7,179h-23.8v-37.9h23.8V179z M60,184h37.8h33.8h37.8l0,2.9H60V184z"/>
			<g>
				<rect x="141.3" y="150.9" class="st9" width="9.1" height="9.1"/>
				<rect x="79.1" y="150.9" class="st9" width="9.1" height="9.1"/>
			</g>
			<path class="st11" d="M48.3,112.6c2.6,1.2,5.7,2.1,9.3,2.1v-5c-4.2,0-7.5-1.5-9.8-3.2c-1.1-0.9-2-1.9-2.5-2.7
				c-0.3-0.4-0.4-0.8-0.6-1.1c-0.1-0.3-0.1-0.5-0.1-0.6v-6.7h-5v6.7c0,0.1,0,0.3-0.1,0.6c-0.2,0.5-0.6,1.3-1.3,2.1
				c-1,1.2-2.5,2.4-4.5,3.4c-2,0.9-4.3,1.6-7.1,1.6v5c5.4,0,9.8-1.9,12.9-4.3c0,0,0.1-0.1,0.1-0.1v5.1c0,0.1,0,0.3-0.1,0.6
				c-0.2,0.5-0.6,1.3-1.3,2.1c-1,1.2-2.5,2.4-4.5,3.4c-2,0.9-4.3,1.6-7.1,1.6v5c5.4,0,9.8-1.9,12.9-4.3c0,0,0.1-0.1,0.1-0.1v5.1
				c0,0.1,0,0.3-0.1,0.6c-0.2,0.5-0.6,1.3-1.3,2.1c-1,1.2-2.5,2.4-4.5,3.4c-2,0.9-4.3,1.6-7.1,1.6v5c5.4,0,9.8-1.9,12.9-4.3
				c0,0,0.1-0.1,0.1-0.1V160h5v-23.2c1.1,0.9,2.3,1.7,3.8,2.4c2.6,1.2,5.7,2.1,9.3,2.1v-5c-4.2,0-7.5-1.5-9.8-3.2
				c-1.1-0.9-2-1.9-2.5-2.7c-0.3-0.4-0.4-0.8-0.6-1.1c-0.1-0.3-0.1-0.5-0.1-0.6v-5.1c1.1,0.9,2.3,1.7,3.8,2.4
				c2.6,1.2,5.7,2.1,9.3,2.1v-5c-4.2,0-7.5-1.5-9.8-3.2c-1.1-0.9-2-1.9-2.5-2.7c-0.3-0.4-0.4-0.8-0.6-1.1c-0.1-0.3-0.1-0.5-0.1-0.6
				v-5.1C45.6,111.1,46.8,111.9,48.3,112.6z"/>
			<path class="st9" d="M89.4,103.6c2.4,1.2,5.3,1.9,8.6,1.9v-5c-3.8,0-6.9-1.3-9-3c-1-0.8-1.8-1.7-2.3-2.4c-0.2-0.4-0.4-0.7-0.5-1
				c-0.1-0.3-0.1-0.4-0.1-0.5v-6.2h-5v6.2c0,0,0,0.2-0.1,0.5c-0.2,0.5-0.5,1.1-1.2,1.9c-0.9,1.1-2.3,2.2-4.1,3.1
				c-1.8,0.9-4,1.4-6.5,1.4v5c4.9,0,9-1.7,11.8-3.9v4.4c0,0,0,0.2-0.1,0.5c-0.2,0.5-0.5,1.1-1.2,1.9c-0.9,1.1-2.3,2.2-4.1,3.1
				c-1.8,0.9-4,1.4-6.5,1.4v5c4.9,0,9-1.7,11.8-3.9v3.4h5v-3.4c0.9,0.7,1.9,1.3,3,1.9l2.2-4.5c-1.8-0.9-3.2-2-4-3.1
				c-0.4-0.5-0.8-1.1-0.9-1.5c-0.2-0.4-0.2-0.7-0.2-0.7v-4.4C87.1,102.3,88.2,103,89.4,103.6z"/>
			<path class="st11" d="M193.8,112.6c2.6,1.2,5.7,2.1,9.3,2.1v-5c-4.2,0-7.5-1.5-9.8-3.2c-1.1-0.9-2-1.9-2.5-2.7
				c-0.3-0.4-0.4-0.8-0.6-1.1c-0.1-0.3-0.1-0.5-0.1-0.6v-6.7h-5v6.7c0,0.1,0,0.3-0.1,0.6c-0.2,0.5-0.6,1.3-1.3,2.1
				c-1,1.2-2.5,2.4-4.5,3.4c-2,0.9-4.3,1.6-7.1,1.6v5c5.4,0,9.8-1.9,12.9-4.3c0,0,0.1-0.1,0.1-0.1v5.1c0,0.1,0,0.3-0.1,0.6
				c-0.2,0.5-0.6,1.3-1.3,2.1c-1,1.2-2.5,2.4-4.5,3.4c-2,0.9-4.3,1.6-7.1,1.6v5c5.4,0,9.8-1.9,12.9-4.3c0,0,0.1-0.1,0.1-0.1v5.1
				c0,0.1,0,0.3-0.1,0.6c-0.2,0.5-0.6,1.3-1.3,2.1c-1,1.2-2.5,2.4-4.5,3.4c-2,0.9-4.3,1.6-7.1,1.6v5c5.4,0,9.8-1.9,12.9-4.3
				c0,0,0.1-0.1,0.1-0.1V160h5v-23.2c1.1,0.9,2.3,1.7,3.8,2.4c2.6,1.2,5.7,2.1,9.3,2.1v-5c-4.2,0-7.5-1.5-9.8-3.2
				c-1.1-0.9-2-1.9-2.5-2.7c-0.3-0.4-0.4-0.8-0.6-1.1c-0.1-0.3-0.1-0.5-0.1-0.6v-5.1c1.1,0.9,2.3,1.7,3.8,2.4
				c2.6,1.2,5.7,2.1,9.3,2.1v-5c-4.2,0-7.5-1.5-9.8-3.2c-1.1-0.9-2-1.9-2.5-2.7c-0.3-0.4-0.4-0.8-0.6-1.1c-0.1-0.3-0.1-0.5-0.1-0.6
				v-5.1C191.1,111.1,192.4,111.9,193.8,112.6z"/>
			<path class="st9" d="M151.6,103.6c2.4,1.2,5.3,1.9,8.6,1.9v-5c-3.8,0-6.9-1.3-9-3c-1-0.8-1.8-1.7-2.3-2.4c-0.2-0.4-0.4-0.7-0.5-1
				c-0.1-0.3-0.1-0.4-0.1-0.5v-6.2h-5v6.2c0,0,0,0.2-0.1,0.5c-0.2,0.5-0.5,1.1-1.2,1.9c-0.9,1.1-2.3,2.2-4.1,3.1
				c-1.8,0.9-4,1.4-6.5,1.4v5c4.9,0,9-1.7,11.8-3.9v4.4c0,0,0,0.3-0.2,0.7c-0.3,0.6-0.8,1.5-1.7,2.3c-0.8,0.8-2,1.6-3.3,2.3l2.2,4.5
				c1.1-0.5,2.1-1.2,3-1.9v3.4h5v-3.4c0.9,0.7,2,1.4,3.2,2c2.4,1.2,5.3,1.9,8.6,1.9v-5c-3.8,0-6.9-1.3-9-3c-1-0.8-1.8-1.7-2.3-2.4
				c-0.2-0.4-0.4-0.7-0.5-1c-0.1-0.3-0.1-0.4-0.1-0.5v-4.4C149.3,102.3,150.4,103,151.6,103.6z"/>
			<polygon class="st9" points="131.3,216.6 129.8,211.8 115.9,216.2 102,211.8 100.5,216.6 107.7,218.8 100.5,221.1 102,225.9 
				115.9,221.5 129.8,225.9 131.3,221.1 124.2,218.8 			"/>
			<path class="st9" d="M121.4,200.5c-0.9-1.8-2.1-3.6-3.8-5l-1.7-1.5l-1.7,1.5c-1.6,1.4-2.9,3.2-3.8,5c-0.9,1.8-1.4,3.8-1.4,5.7
				c0,0.8,0.1,1.7,0.4,2.5c0.4,1.2,1.2,2.4,2.3,3.2c1.2,0.8,2.6,1.2,4.1,1.2c1,0,2-0.2,2.9-0.5c1.3-0.5,2.4-1.5,3.1-2.7
				c0.6-1.2,0.9-2.5,0.9-3.7C122.8,204.3,122.2,202.4,121.4,200.5z M117.6,207.2c-0.1,0.4-0.3,0.5-0.4,0.7c-0.2,0.1-0.5,0.3-1.3,0.3
				c-0.5,0-0.8-0.1-1-0.2c-0.3-0.1-0.4-0.2-0.5-0.5c-0.1-0.2-0.3-0.7-0.3-1.3c0-0.9,0.3-2.2,0.9-3.5c0.3-0.5,0.6-1.1,0.9-1.6
				c0.3,0.5,0.7,1,0.9,1.6c0.6,1.3,0.9,2.6,0.9,3.5C117.8,206.6,117.7,207,117.6,207.2z"/>
			<g>
				<path class="st9" d="M213,150.3c-17.1-4.2-34.1-7.3-50.8-9.4l-0.6,5l0,0c16.5,2,33.3,5.1,50.2,9.2L213,150.3z"/>
				<path class="st9" d="M16.5,150.3l1.2,4.8c16.5-4.2,33.1-7.4,49.9-9.4l-0.6-5C50,142.8,33.1,146,16.5,150.3z"/>
				<polygon class="st9" points="17.7,155.1 17.7,155.1 17.7,155.1 				"/>
				<rect x="162.2" y="168.9" class="st9" width="50.3" height="5"/>
				<rect x="17.1" y="168.9" class="st9" width="50.3" height="5"/>
				<rect x="25.6" y="186.9" class="st9" width="32" height="5"/>
				<rect x="172" y="186.9" class="st9" width="32.6" height="5"/>
			</g>
			<g>
				<polygon class="st9" points="157,204.5 154.9,204.5 155.7,211.1 150.7,211.1 149.8,204.5 144.5,204.5 143.7,211.1 138.6,211.1 
					139.4,204.5 137.4,204.5 137.4,199.5 157,199.5 				"/>
				<polygon class="st9" points="92.2,204.5 90.1,204.5 90.9,211.1 85.9,211.1 85,204.5 79.7,204.5 78.9,211.1 73.8,211.1 
					74.6,204.5 72.6,204.5 72.6,199.5 92.2,199.5 				"/>
			</g>
			<path class="st9" d="M193.1,77.5l-12.7,0.7l-39-23.7l-10.7,5.7l-15.9-10.5L53.4,86.4l-11.8-7.9L15.8,94.2l2.6,4.3l18.3-11.1
				l-7.3,19.6l25.2-15.4l55.6-33.2l-8.1,23.5l29.7-16.5l8.5-4.6l13.8,25.2l25.8-2.7l12.1-0.7l19.2,9.8l2.3-4.5L193.1,77.5z
				 M42.8,85.3l5.9,4l-9.5,5.8L42.8,85.3z M111.1,71l5-14.5l9.7,6.4L111.1,71z M156.9,80.6L148,64.3L172.1,79L156.9,80.6z"/>
			<path class="st10" d="M91.4,45h-2.2c0,1.7-1.4,3-3,3v2.2c1.7,0,3,1.4,3,3h2.2c0-1.7,1.4-3,3-3V48C92.7,48,91.4,46.7,91.4,45z"/>
			<path class="st10" d="M117,27.6h-2.2c0,1.7-1.4,3-3,3v2.2c1.7,0,3,1.4,3,3h2.2c0-1.7,1.4-3,3-3v-2.2
				C118.4,30.6,117,29.3,117,27.6z"/>
			<path class="st10" d="M161.5,54.1h-2.2c0,1.7-1.4,3-3,3v2.2c1.7,0,3,1.4,3,3h2.2c0-1.7,1.4-3,3-3v-2.2
				C162.8,57.1,161.5,55.8,161.5,54.1z"/>
		</g>
	</g>
</g>
<g id="TEXTS" class="st0">
	<g class="st12">
		<text transform="matrix(1 0 0 1 100.5572 321.6923)" class="st10" style="font-family:'KronaOne-Regular'; font-size:9.8155px;">LOGO</text>
	</g>
	<g class="st12">
		<text transform="matrix(1 0 0 1 30.2334 302.7411)" class="st10" style="font-family:'KronaOne-Regular'; font-size:31.2579px;">GLAMPING</text>
	</g>
</g>
</svg>
